<?xml version="1.0" encoding="UTF-8"?><svg id="a" xmlns="http://www.w3.org/2000/svg" width="776.7" height="170.14" viewBox="0 0 776.7 170.14"><path d="M79.03.23c14.21-1.4,31.19,3.73,43.84,9.79-14.2,11.54-20.01,19.05-29.07,34.64,2.49,1.01,4.96,2.07,7.4,3.19,30.26,14.23,32.53,55.68,3.93,72.95-3.97,2.4-7.92,3.78-12.29,5.24,8.25,15.96,15.93,23.72,29.68,34.93-7.14,3.79-11.48,4.94-19.27,7.06C52.45,179.24,5.03,144.57.35,92.66c-2.05-22.58,4.89-45.06,19.32-62.54C35.06,11.7,55.44,2.37,79.03.23Z" fill="#09ae54"/><path d="M78.13,44.74c5.61-.36,9.35-.21,14.99.07-.48,1.04-.95,2.08-1.39,3.14-12.18,28.62-10.52,49.97.79,78.05-8.45,1.13-12.97.52-20.98-1.67-37.01-13.1-36.17-71.02,6.6-79.58Z" fill="#1f2122"/><path d="M388.3,80.27c-3.33-27.36-28.22-46.84-55.57-43.48-27.33,3.35-46.77,28.21-43.44,55.55,3.33,27.34,28.17,46.8,55.51,43.49,27.36-3.32,46.84-28.2,43.51-55.56ZM343.43,126.33c-22.08,2.57-42.07-13.24-44.66-35.33-2.59-22.08,13.19-42.09,35.26-44.71,22.11-2.62,42.16,13.19,44.76,35.32,2.6,22.12-13.24,42.15-35.36,44.72Z" fill="#f5f5f6"/><path d="M675.31,29.66c-.14,15.37-.01,30.74.38,46.1-7.72-8.18-14.82-13.73-26.85-14.01-9.34-.19-18.37,3.39-25.04,9.93-16.77,16.45-14.77,45.61,4.95,58.93,18.33,10.17,34.23,7.65,47.55-8.92l-.21,13.43,10.05-.11.03-105.34h-10.85ZM655.79,125.7c-14.47,3.2-28.8-5.91-32.04-20.38-3.24-14.47,5.84-28.82,20.29-32.1,14.5-3.29,28.92,5.83,32.17,20.35,3.25,14.52-5.9,28.91-20.42,32.13Z" fill="#f5f5f6"/><path d="M134.03,17.44c4.55,3.31,11.68,10.74,15.1,15.19,14.01,18.26,20.2,41.33,17.22,64.14-3.12,23.61-13.8,41.81-32.57,56.26l-6.62-5.19c-6.8-5.27-10.63-9.74-15.36-16.78,5.78-4.29,10.5-8.22,14.84-14.02,8.6-11.44,12.2-25.87,9.98-40.01-2.6-16.93-11.14-26.95-24.44-36.83,6.42-9.9,12.67-15.57,21.83-22.76Z" fill="#172a1a"/><path d="M501.48,71.6c-5.02-11.09-11.14-23.83-15.62-35.02l-7.43-.02c-13.96,33.22-30.19,65.6-44.01,98.34l11.51-.23,11.38-25.47,29.38-.06,20.46-.08c3.85,9,7.41,17.18,11.73,25.97l11.31-.05-28.7-63.37ZM482.17,100.36l-21-.05c6.61-15.39,13.42-32.4,20.53-47.41,3.49,4.21,18.3,40.18,21.62,47.48l-21.16-.02Z" fill="#f5f5f6"/><path d="M239.11,36.92c17.88-1.09,30.77,3.51,42.9,17.15-2.8,1.97-4.72,3.68-7.25,5.92-10.8-11.38-22.98-16.5-38.81-13.05-10.26,2.18-19.18,8.46-24.68,17.39-5.89,9.43-7.59,21.39-4.99,32.15,2.54,10.29,9.08,19.13,18.18,24.56,9.74,5.81,21.04,6.45,31.84,3.61,9.02-3.3,12.07-5.82,18.58-12.64,2.32,2.36,4.7,4.3,7.22,6.43-7.84,8.76-16.66,14.47-28.44,16.61-13.24,2.39-26.88-.61-37.9-8.33-10.8-7.58-18.06-19.22-20.13-32.25-2.19-13.21,1-26.74,8.85-37.58,8.68-11.93,20.31-17.79,34.62-19.97Z" fill="#f5f5f6"/><path d="M587.96,63.1l10.44.08.15,71.89-10.2.09c-.2-3.88-.18-8.1-.24-12.01-1.37,1.64-3.08,3.73-4.58,5.24-5.25,5.2-12.3,8.17-19.68,8.3-7.4.08-14.98-2.67-20.14-8.01-9.8-10.13-9.04-21.92-8.98-34.68l-.05-30.43,10.65.06c-.03,16.16-3.71,43.99,7.2,57.35,5.87,7.19,21.16,7,27.21,0,11.81-13.66,8.34-40.79,8.24-57.89Z" fill="#f5f5f6"/><path d="M747.78,42.57h1.42c1.71,2.27.95,17.15.89,21.04l23.59.03v9.2s-23.56,0-23.56,0c.41,13.77-1.5,29.56,1.36,42.77,2.83,13.13,14.04,11.81,23.75,8.75l1.47,7.28c-.18,7.97-25.58,5.07-30.02-1.71-9.85-15.07-7.2-39.63-7.11-57.13h-12.44s-.06-9.19-.06-9.19l12.46.03.07-18,8.18-3.08Z" fill="#f5f5f6"/><path d="M705.47,62.98l10.58.04c.76,23.42.34,48.59-.09,72.06l-10.56.08.07-72.17Z" fill="#f5f5f6"/><path d="M408.02,94.58c9.44-.53,20.71,2.67,20.1,14.81-.47,9.31-15.49,19.9-22.65,25.9,6.12.03,19.14-2.28,22.94,2.36.15,2.22.47,1.73-.56,3.14-5.09.85-16.14.55-21.89.56-4.3.13-8.2,1.34-11.01-2.17-.62-9.06,34.42-23.32,24.02-35.53-5.67-6.66-14.85-1.16-19.61,3.13l-4.59-3.79c4.06-5.36,6.85-6.76,13.25-8.42Z" fill="#f5f5f6"/><path d="M709.07,33.88c2.68-.62,5.5.24,7.36,2.27,1.87,2.03,2.51,4.9,1.67,7.53-.83,2.63-3.02,4.6-5.72,5.17-4.11.87-8.15-1.74-9.06-5.84-.91-4.1,1.65-8.17,5.74-9.12Z" fill="#f5f5f6"/></svg>