<?xml version="1.0" encoding="UTF-8"?><svg id="a" xmlns="http://www.w3.org/2000/svg" width="772.41" height="200.19" viewBox="0 0 772.41 200.19"><path d="M183.56.1c10.88-.39,25.86.35,36.45,2.44-24.62,24.33-31.12,46.49-40.44,79.09-4.77,16.7-8,31.56-19.88,45.11-11.18,12.76-28.98,22.5-45.94,23.76-15.73-21.87-2.44-52.8,9.96-72.91,3.29-5,5.51-8.93,8.36-14.21-20.31,5.16-41.8,25.29-54.44,41.35-10.92-5.33-17.93-5.9-27.99,1.15l-.02-.44c-.81-23.95,9.35-51.31,25.78-68.72C103.43,7.03,144.98,1.39,183.56.1Z" fill="#2e7d32"/><path d="M63.67,105.64c19.12,2.08,22.05,15.47,20.52,31.86-.24,3.27,1.28,8.78,3.88,10.93,11.29,9.27,18.45-1.74,30.82,10.76,4.56,4.6,7.08,10.83,7.02,17.3-.2,19.1-20.41,30.34-36.5,19.45-19.07-12.9,4.15-45.61-26.08-45.51-4.19-.1-8.6-.17-11.77,3.04-11.23,10.6.91,30.41-12.84,40.77-26.51,19.97-53.04-17.11-29.8-37.96,6.6-5.92,15.16-5.03,23.39-4.09,19.85-9.48,4.12-22.4,15.16-37.71,3.93-5.45,9.75-7.8,16.19-8.82Z"/><path d="M735,80.5c8.77-.96,15.38,2.12,21.33,8.37l.7-6.77,15.02.05c-.01,14.33,1.7,54.5-2.26,65.17-2.64,7.1-7.6,13.28-14.61,16.4-8.09,3.59-18.34,3.52-26.51.26-5.67-2.27-11.93-7.7-14.35-13.37l.4-.98c4.02-2.58,7.73-5,11.93-7.31.19.22.39.44.59.65,6.15,6.59,15.42,12.78,24.02,4.84,5.07-4.68,4.85-11.24,4.92-17.7-4.06,4.24-8.31,7.11-14.15,8.31-6.41,1.33-13.08-.03-18.46-3.75-21.4-14.69-17.55-49.68,11.43-54.18Z"/><path d="M735.99,96.45c7.54-2.44,15.64,1.7,18.07,9.25,2.43,7.55-1.73,15.63-9.28,18.05-7.53,2.41-15.59-1.73-18.02-9.26-2.42-7.53,1.71-15.6,9.23-18.04Z" fill="#fff"/><path d="M415.68,54.74c5.11.12,10.4-.12,15.52-.27l.4,32.63c23.97-23.59,60.43,16.95,35.03,44.88-21.26,17.77-33.23,1.25-37.57,2.34-.24,1.31-.51,2.62-.8,3.93-2.49.66-11.59.42-14.67.41.13-28.32,2.34-55.22,2.09-83.93Z"/><path d="M442.96,94.38c20.26.63,22.18,28.01,3.91,31.41-2.83-.13-7.21-.28-9.54-1.81-12.88-8.49-9.48-26.51,5.63-29.6Z" fill="#fff"/><path d="M512.01,80.07c16.6-.27,30.31,12.89,30.73,29.49.42,16.6-12.62,30.43-29.21,30.99-16.8.57-30.84-12.67-31.26-29.47s12.94-30.73,29.74-31Z"/><path d="M507.57,95.82c5.24-1.68,10.98-.38,14.99,3.39,4.01,3.77,5.65,9.42,4.29,14.76-1.36,5.33-5.51,9.51-10.83,10.9-7.93,2.07-16.06-2.55-18.35-10.41-2.29-7.87,2.1-16.13,9.9-18.63Z" fill="#fff"/><path d="M666.8,80.96c16.36-3.76,32.64,6.55,36.25,22.94,3.61,16.39-6.83,32.58-23.25,36.05-16.22,3.43-32.17-6.86-35.73-23.05-3.57-16.19,6.58-32.23,22.74-35.94Z"/><path d="M669.67,95.81c8.05-2.15,16.31,2.66,18.41,10.72,2.1,8.06-2.77,16.29-10.84,18.33-8,2.02-16.13-2.79-18.21-10.77-2.08-7.98,2.67-16.15,10.64-18.28Z" fill="#fff"/><path d="M263.66,56.29c17.36-1.4,30.23,9.08,39.12,22.77-3.25,2.61-8.86,6.21-12.44,8.64-8.75-15.76-27.2-21.34-41.13-8.51-5.25,4.79-8.34,11.49-8.58,18.6-.67,24.25,27.52,35.07,45,18.11,1.53-1.98,2.68-4.14,3.93-6.31,4.21,1.96,9.86,5.86,13.44,8.8-9.27,10.77-15.09,19.13-31.49,21.33-10.78,1.45-21.69-1.52-30.24-8.25-30.39-23.65-17.93-70.47,22.4-75.18Z"/><path d="M330.16,80.56c1.12-.08,2.24-.13,3.36-.15,7.44-.09,14.4,1.91,19.76,7.28,2.83,2.83,4.86,6.36,5.91,10.22,1.63,6.01,1.17,33.23,1.22,40.73-3.38.1-13.02.65-15.76-.1-.61-1.42-.64-1.84-.9-3.31-2.52-.22-9.48,5.84-16.83,4.81-6.91-.97-10.17-2.88-14.89-8.19-2.77-5.32-4.29-12.36-1.25-18.04,7.54-14.07,23.94-7.9,33.19-10.94l.5-1.2c-2.07-11.25-16.16-9.64-22.53.15-3.99-3.7-6.12-5.19-10.97-7.59,5.49-8.64,9.16-11.59,19.19-13.67Z"/><path d="M334.36,113.79c2.6-.15,11.17-1.67,10.94,1.35-.54,6.93-2.5,9.86-8.79,12.49-5.01.45-10.1.43-11.33-5.62-.34-1.66.02-3.39,1-4.77,1.94-2.76,5.18-2.99,8.18-3.46Z" fill="#fff"/><path d="M583.95,80.92c29.48,2.35,22.99,36.61,22.7,58.27-5.32.19-10.95.05-16.3,0-.58-12.21,6-56.7-19.33-40.88-.77,1.14-2.38,3.63-2.53,4.87-1.31,10.67-.7,25.17-.62,35.92l-16.22.21c-.23-18.87-.1-37.9-.1-56.79,4.55-.13,9.36-.32,13.93-.19,4.68.13,1.54,2.99,3.36,5.27,6.42-4.16,7.64-5.67,15.11-6.68Z"/><path d="M619.16,54.49c4.92-.15,10.09-.13,15.04-.19l.08,56.46c0,6.26.39,22.84-.37,28.33l-15.45.02c0-28.21.23-56.42.69-84.62Z"/><path d="M399.23,81.04c9.06-.73,7.1,2.45,7.21,10.05.02,1.6-.02,3.28-.03,4.88-23.75,1.07-17.49,25.02-17.42,43.12l-16.14.11c.09-19.04.03-38.07-.17-57.11h15.52s.14,8.14.14,8.14c3.83-4.96,5.27-6.6,10.89-9.19Z"/></svg>