<?xml version="1.0" encoding="UTF-8"?><svg id="a" xmlns="http://www.w3.org/2000/svg" width="723.27" height="200.2" viewBox="0 0 723.27 200.2"><path d="M183.56.1c10.88-.39,25.86.35,36.45,2.44-24.62,24.33-31.12,46.49-40.44,79.09-4.77,16.7-8,31.56-19.88,45.11-11.18,12.76-28.98,22.5-45.94,23.76-15.73-21.87-2.44-52.8,9.96-72.91,3.29-5,5.51-8.93,8.36-14.21-20.31,5.16-41.8,25.29-54.44,41.35-10.92-5.33-17.93-5.9-27.99,1.15l-.02-.44c-.81-23.95,9.35-51.31,25.78-68.72C103.43,7.03,144.98,1.39,183.56.1Z" fill="#9ae19d"/><path d="M63.67,105.64c19.12,2.08,22.05,15.47,20.52,31.86-.24,3.27,1.28,8.78,3.88,10.93,11.29,9.27,18.45-1.74,30.82,10.76,4.56,4.6,7.08,10.83,7.02,17.3-.2,19.1-20.41,30.34-36.5,19.45-19.07-12.9,4.15-45.61-26.08-45.51-4.19-.1-8.6-.17-11.77,3.04-11.23,10.6.91,30.41-12.84,40.77-26.51,19.97-53.04-17.11-29.8-37.96,6.6-5.92,15.16-5.03,23.39-4.09,19.85-9.48,4.12-22.4,15.16-37.71,3.93-5.45,9.75-7.8,16.19-8.82v-.02Z" fill="#c9d6ea"/><path d="M222.89,107.9c0-25.44,15.84-44.88,41.16-44.88,21.12,0,33.6,12.6,35.4,28.92h-17.28c-1.56-8.64-8.04-14.28-18.12-14.28-15.84,0-23.4,13.2-23.4,30.24s9.12,30.12,23.52,30.12c10.2,0,17.4-6.12,18.48-15.12h17.04c-.48,7.56-3.72,14.88-9.48,20.28-5.88,5.52-14.16,9.12-26.04,9.12-24.12,0-41.28-18.6-41.28-44.4Z" fill="#f0f4f9"/><path d="M304.97,107.78c0-25.68,16.08-44.76,41.4-44.76s41.28,19.08,41.28,44.76-15.96,44.64-41.28,44.64-41.4-18.96-41.4-44.64ZM369.89,107.78c0-17.16-7.68-30.48-23.4-30.48s-23.76,13.32-23.76,30.48,8.04,30.36,23.76,30.36,23.4-13.32,23.4-30.36Z" fill="#f0f4f9"/><path d="M403.89,171.43c6.02-4.76,12.59-8.12,12.59-14.27,0-4.48-2.38-7.49-6.65-7.49-4.83,0-7.7,3.5-7.84,9.72h-8.96c0-10.91,5.6-17.84,17-17.84,10.42,0,16.3,7.07,16.3,15.32,0,9.02-6.16,13.29-12.03,17.21-3.71,2.38-8.05,5.46-9.66,8.54h22.11v7.84h-34.42c.35-9.17,6.09-14.76,11.54-19.03Z" fill="#f0f4f9"/><path d="M479.2,64.7h18l30.24,85.8h-18.12l-5.76-18.24h-30.96l-5.64,18.24h-17.64l29.88-85.8ZM476.67,118.94h22.68l-7.68-24.72c-1.44-4.56-3.48-13.2-3.48-13.2h-.24s-2.16,8.64-3.6,13.2l-7.68,24.72Z" fill="#f0f4f9"/><path d="M570.39,150.5v-7.2h-.36c-4.2,5.64-9,8.88-17.64,8.88-13.68,0-21.36-8.76-21.36-22.2v-41.04h16.2v38.28c0,7.2,3.24,11.16,10.2,11.16,7.68,0,12.36-5.76,12.36-13.92v-35.52h16.32v61.56h-15.72Z" fill="#f0f4f9"/><path d="M593.68,119.78c0-19.2,10.92-32.52,26.28-32.52,8.64,0,14.04,3.96,17.4,9.12h.36v-31.68h16.32v85.8h-15.72v-8.04h-.24c-3.6,5.88-9.72,9.84-18.36,9.84-15.48,0-26.04-12.6-26.04-32.52ZM638.07,120.14c0-11.76-3.84-19.68-14.28-19.68-9,0-13.56,7.92-13.56,19.32s4.68,18.84,13.08,18.84c9.72,0,14.76-7.2,14.76-18.48Z" fill="#f0f4f9"/><path d="M664.6,64.7h16.32v14.64h-16.32v-14.64ZM664.6,88.94h16.32v61.56h-16.32v-61.56Z" fill="#f0f4f9"/><path d="M687.87,88.94h8.52v-19.2h15.96v19.2h10.56v10.8h-10.56v32.64c0,4.56,2.52,6.12,6.12,6.12,2.04,0,4.8-.12,4.8-.12v12s-3.72.24-10.2.24c-7.92,0-16.68-3.12-16.68-14.76v-36.12h-8.52v-10.8Z" fill="#f0f4f9"/></svg>