<?xml version="1.0" encoding="UTF-8"?><svg id="a" xmlns="http://www.w3.org/2000/svg" width="726.03" height="222.02" viewBox="0 0 726.03 222.02"><path d="M183.56.1c10.88-.39,25.86.35,36.45,2.44-24.62,24.33-31.12,46.49-40.44,79.09-4.77,16.7-8,31.56-19.88,45.11-11.18,12.76-28.98,22.5-45.94,23.76-15.73-21.87-2.44-52.8,9.96-72.91,3.29-5,5.51-8.93,8.36-14.21-20.31,5.16-41.8,25.29-54.44,41.35-10.92-5.33-17.93-5.9-27.99,1.15l-.02-.44c-.81-23.95,9.35-51.31,25.78-68.72C103.43,7.03,144.98,1.39,183.56.1Z" fill="#9ae19d"/><path d="M63.67,105.64c19.12,2.08,22.05,15.47,20.52,31.86-.24,3.27,1.28,8.78,3.88,10.93,11.29,9.27,18.45-1.74,30.82,10.76,4.56,4.6,7.08,10.83,7.02,17.3-.2,19.1-20.41,30.34-36.5,19.45-19.07-12.9,4.15-45.61-26.08-45.51-4.19-.1-8.6-.17-11.77,3.04-11.23,10.6.91,30.41-12.84,40.77-26.51,19.97-53.04-17.11-29.8-37.96,6.6-5.92,15.16-5.03,23.39-4.09,19.85-9.48,4.12-22.4,15.16-37.71,3.93-5.45,9.75-7.8,16.19-8.82v-.02Z" fill="#eacbd7"/><text transform="translate(220.01 150.5)" fill="#f5edf0" font-family="NHaasGroteskDSPro-65Md, &apos;Neue Haas Grotesk Display Pro&apos;" font-size="120" font-weight="500"><tspan x="0" y="0">CO</tspan></text><text transform="translate(390.53 190.46) scale(.58)" fill="#f5edf0" font-family="NHaasGroteskDSPro-65Md, &apos;Neue Haas Grotesk Display Pro&apos;" font-size="120" font-weight="500" letter-spacing="0em"><tspan x="0" y="0">2</tspan></text><text transform="translate(428.8 150.5)" fill="#f5edf0" font-family="NHaasGroteskDSPro-65Md, &apos;Neue Haas Grotesk Display Pro&apos;" font-size="120" font-weight="500"><tspan x="0" y="0" letter-spacing="0em"> </tspan><tspan x="20.16" y="0" letter-spacing="-.01em">A</tspan><tspan x="97.44" y="0" letter-spacing="0em">udit</tspan></text></svg>